PathFileType  4	(X/Y/Z) C:\Users\antoi\Documents\MyRepositories\mobilecap\ResultsAnalysis
DataRate	CameraRate	NumFrames	NumMarkers	Units	OrigDataRate	OrigDataStartFrame	OrigNumFrames
100.0	100.0	6	51	mm	100.0	451	901
Frame#	Time	r_knee			r_shank_antsup			r_ankle			r_calc			r_5meta			r_toe			L_knee			L_shank_antsup			L_ankle			L_calc			L_5meta			L_toe			r_sh2			r_sh3			r_sh4			L_sh2			L_sh3			r_thigh1			r_thigh2			r_thigh3			r_thigh4			r_thigh5			L_thigh1			L_thigh2			L_thigh3			L_thigh4			r.ASIS			r.PSIS			L.ASIS			L.PSIS			C7			R_Shoulder			L_Shoulder			R_Sternum			L_Sternum			R_humerus			R_elbow_med			R_elbow_lat			R_forearm			R_wrist_radius			R_wrist_ulna			L_humerus			L_elbow_med			L_elbow_lat			L_forearm			L_wrist_radius			L_wrist_ulna			R_HJC			L_HJC			R_HJC_reg			L_HJC_reg			
		X1	Y1	Z1	X2	Y2	Z2	X3	Y3	Z3	X4	Y4	Z4	X5	Y5	Z5	X6	Y6	Z6	X7	Y7	Z7	X8	Y8	Z8	X9	Y9	Z9	X10	Y10	Z10	X11	Y11	Z11	X12	Y12	Z12	X13	Y13	Z13	X14	Y14	Z14	X15	Y15	Z15	X16	Y16	Z16	X17	Y17	Z17	X18	Y18	Z18	X19	Y19	Z19	X20	Y20	Z20	X21	Y21	Z21	X22	Y22	Z22	X23	Y23	Z23	X24	Y24	Z24	X25	Y25	Z25	X26	Y26	Z26	X27	Y27	Z27	X28	Y28	Z28	X29	Y29	Z29	X30	Y30	Z30	X31	Y31	Z31	X32	Y32	Z32	X33	Y33	Z33	X34	Y34	Z34	X35	Y35	Z35	X36	Y36	Z36	X37	Y37	Z37	X38	Y38	Z38	X39	Y39	Z39	X40	Y40	Z40	X41	Y41	Z41	X42	Y42	Z42	X43	Y43	Z43	X44	Y44	Z44	X45	Y45	Z45	X46	Y46	Z46	X47	Y47	Z47	X48	Y48	Z48	X49	Y49	Z49	X50	Y50	Z50	X51	Y51	Z51	

451	4.50000000	-205.87168	590.72016	-310.21397	-174.04594	445.87316	-307.23543	-297.72067	100.77730	-302.78659	-357.44165	71.19901	-364.28238	-163.57639	40.60445	-270.02342	-125.43765	70.29929	-320.49419	-253.83960	596.17094	-853.97442	-214.30966	402.26133	-889.94121	-340.31525	117.35774	-928.11182	-396.03767	75.17879	-871.66062	-197.76092	36.18893	-971.18978	-156.74783	67.27534	-912.04043	-196.48938	335.00645	-309.36746	-239.93794	456.86547	-272.34377	-264.32570	347.25716	-264.89117	-291.34104	431.83518	-921.29091	-320.76722	315.54277	-923.54084	-395.62367	814.28909	-302.98277	-301.50267	752.51167	-295.18185	-321.03754	686.95265	-289.93323	-460.16224	723.69462	-323.82350	-362.14303	656.29638	-313.41612	-401.21355	841.74953	-761.36593	-307.17638	756.88488	-806.94794	-483.45356	771.60173	-780.70685	-386.48140	687.04634	-835.09140	-405.32524	899.54186	-379.60206	-526.60881	1030.62036	-474.63235	-415.14157	871.55766	-652.12617	-522.22749	1025.08976	-565.45726	-51.45095	1169.37389	-503.75948	13.44936	1045.18373	-358.71215	-10.22588	1097.34799	-666.53480	-21.13586	1001.65426	-494.87764	-27.85400	1003.73635	-533.69803	104.85573	847.45653	-302.49273	97.67449	685.49592	-322.55362	122.56264	724.93956	-246.72351	272.99672	827.96085	-354.15013	329.83642	875.34410	-404.87810	352.44610	847.69096	-394.30628	94.40355	882.04051	-737.33323	55.34548	749.64904	-742.14972	102.70980	787.21377	-799.61638	263.12822	850.12267	-686.53035	308.56878	875.93335	-633.08402	325.72418	856.24045	-655.65409	-525.32598	871.86566	-410.17185	-534.13021	861.05734	-607.15593	-519.75109	867.83255	-422.00814	-511.04876	856.84690	-602.39321	
452	4.51000000	-207.07670	591.42053	-311.04050	-175.22647	446.91749	-307.21204	-297.73242	100.80670	-302.78385	-357.44117	71.25180	-364.22974	-163.48730	40.75608	-270.03974	-125.38554	70.27083	-320.57641	-255.03511	596.70929	-854.24927	-215.31116	402.59279	-889.99465	-340.42163	117.38414	-928.25007	-395.80409	74.95845	-871.53869	-197.78471	36.12641	-971.24646	-156.68445	67.20837	-912.15639	-197.21557	335.46231	-309.95101	-241.10709	457.31144	-272.93379	-265.14385	347.57340	-265.50816	-292.45606	432.01431	-921.25052	-321.43812	315.71394	-923.76766	-394.45091	816.72504	-303.59628	-301.03339	753.93990	-295.84464	-321.29750	688.84863	-290.41815	-459.91750	726.79431	-324.56127	-362.59510	658.23378	-314.12852	-400.08612	843.63560	-761.69443	-306.77489	757.91172	-807.56419	-482.89399	774.12019	-780.68595	-386.90045	688.57092	-834.94293	-404.43019	903.18407	-380.00901	-525.48976	1035.23120	-475.03782	-414.80652	875.28177	-652.24966	-521.10825	1029.51145	-565.92272	-51.15336	1176.12746	-504.38260	13.60627	1052.30204	-358.89815	-9.99415	1103.69034	-667.24803	-20.18255	1008.67226	-495.10966	-26.88665	1010.68259	-533.97863	103.80998	853.71116	-302.26967	95.36592	691.66429	-321.83788	120.57197	731.29260	-246.22061	271.47469	832.96389	-354.30326	328.47709	879.92000	-405.27213	350.93239	852.02794	-394.76019	93.46054	887.57475	-738.15514	53.59810	755.38106	-742.97122	101.12723	792.75325	-800.48086	261.75425	854.93151	-687.21826	307.36288	880.61672	-633.71699	324.36946	860.82890	-656.53242	-524.79187	876.34151	-410.40683	-533.83568	865.43654	-607.37463	-519.24136	872.35107	-422.36920	-510.55431	861.01016	-602.55423	
453	4.52000000	-208.31656	592.10606	-311.88716	-176.36001	447.54683	-307.97633	-297.74203	100.83566	-302.76586	-357.45511	71.29121	-364.20637	-163.41400	40.96691	-270.04575	-125.33049	70.28645	-320.68896	-256.42189	597.20182	-854.41568	-216.37343	403.04654	-890.23117	-340.54410	117.31512	-928.30198	-395.40204	74.56213	-871.35109	-197.81378	36.04413	-971.31261	-156.62121	67.15003	-912.31700	-197.92126	336.12343	-310.70193	-242.25696	457.65992	-273.94284	-265.96346	347.96408	-266.15587	-293.69053	432.00947	-921.24816	-322.19576	315.84684	-924.01160	-393.23693	819.08177	-304.55040	-300.46444	755.32879	-296.83321	-321.56933	690.68112	-291.06716	-459.66654	729.99142	-325.47318	-363.02534	660.23786	-314.91495	-398.86043	845.69688	-762.28122	-306.45335	758.80665	-807.97696	-482.26311	776.91166	-780.82252	-387.33019	690.21136	-834.77155	-403.56643	906.94819	-380.43553	-524.34728	1039.98612	-475.47725	-414.48864	879.28609	-652.46031	-519.98233	1034.14912	-566.34732	-50.96088	1183.35243	-504.99880	13.48806	1060.36277	-358.98585	-9.79684	1110.43673	-667.79771	-19.34281	1015.84302	-495.30651	-25.85684	1017.93405	-534.32299	102.56663	860.52331	-302.01982	92.83423	698.46951	-321.18775	118.31222	738.23247	-245.55740	269.77324	838.51867	-354.37759	326.90665	884.93705	-405.54014	349.20711	856.91304	-395.12032	92.45598	893.44452	-738.93992	51.74003	761.55441	-743.77158	99.45984	798.72634	-801.31100	260.25319	860.18023	-687.93336	305.87897	885.56102	-634.56579	322.85456	865.86471	-657.31058	-524.27432	880.95473	-410.71758	-533.54444	870.06337	-607.67532	-518.74547	876.99048	-422.76667	-510.09802	865.42702	-602.79434	
454	4.53000000	-209.61597	592.67542	-313.01338	-177.49927	447.64379	-309.65999	-297.75232	100.84172	-302.77728	-357.47201	71.30972	-364.20712	-163.41459	41.09017	-270.06914	-125.29471	70.29347	-320.81738	-257.91733	597.71404	-854.53516	-217.46155	403.59024	-890.59449	-340.62708	117.34327	-928.51075	-395.15521	74.37466	-871.26900	-197.81919	35.96582	-971.40471	-156.59229	67.11586	-912.51273	-198.62778	336.65576	-311.37453	-243.44292	457.99565	-275.09833	-266.85970	348.30586	-266.80278	-294.97619	432.00270	-921.39711	-322.95664	315.81193	-924.07620	-391.94628	821.56273	-305.51770	-299.90254	756.70401	-297.89179	-321.68457	692.02116	-292.21785	-459.36977	733.31469	-326.45909	-363.53141	662.49284	-316.13254	-397.51159	847.93132	-763.12472	-306.16217	759.73526	-808.27349	-481.61840	779.92321	-781.15376	-387.69810	692.03817	-834.86866	-402.73609	910.82716	-380.87576	-523.25419	1044.95566	-475.84666	-414.13926	883.46449	-652.57761	-518.85506	1038.98331	-566.75835	-50.85050	1191.05390	-505.53704	13.11857	1069.00488	-358.73816	-9.64025	1117.64590	-668.32625	-18.56287	1023.66134	-495.51943	-24.98667	1025.57691	-534.66465	101.05617	867.88003	-301.70763	90.04934	705.76921	-320.41948	115.94554	745.58596	-244.75994	267.85230	844.60505	-354.41624	325.12852	890.36126	-405.66760	347.18573	862.31391	-395.36294	91.34232	899.73132	-739.68902	49.73454	768.17278	-744.51688	97.64853	805.11298	-802.12615	258.63648	865.86956	-688.88813	304.11881	890.83869	-635.58798	321.25420	871.44496	-658.21689	-523.80092	885.73194	-411.01445	-533.25117	874.88771	-607.96632	-518.28320	881.83540	-423.21885	-509.58353	870.02450	-603.00855	
455	4.54000000	-210.90341	593.23191	-314.38911	-178.67954	447.63536	-311.60015	-297.79139	100.84791	-302.91541	-357.48091	71.32085	-364.21349	-163.44868	41.17626	-270.10378	-125.28678	70.25600	-320.94102	-259.41319	598.32240	-854.81283	-218.59081	404.09689	-890.88525	-340.72422	117.36667	-928.68323	-395.14623	74.44360	-871.29388	-197.80507	35.90878	-971.50520	-156.58959	67.09865	-912.67963	-199.40953	337.13859	-312.06167	-244.67472	458.43517	-276.08346	-267.53721	348.68622	-267.48840	-296.19197	432.40982	-922.05728	-323.73216	315.73408	-924.04548	-390.54483	824.17848	-306.28948	-299.35950	758.04491	-298.90883	-321.68441	693.19030	-293.59144	-458.94485	736.71992	-327.49746	-364.04782	664.75828	-317.81322	-396.11760	850.21127	-763.97601	-305.77779	760.93006	-808.93119	-481.02620	782.93394	-781.46230	-388.04865	693.98703	-835.25067	-401.93865	914.80635	-381.32534	-522.14503	1050.11970	-476.20313	-413.82549	887.88542	-652.90148	-517.70575	1044.04729	-567.30229	-50.82358	1199.19848	-506.03801	12.70155	1077.81210	-358.41232	-9.56822	1125.37790	-669.08640	-17.73756	1032.11888	-495.67878	-24.31357	1033.76920	-535.05814	99.33768	875.65770	-301.35769	86.96695	713.34151	-319.38468	113.48912	753.30791	-243.92056	265.57423	851.14769	-354.38890	323.04610	896.24281	-405.83765	344.86722	868.13270	-395.55359	90.06829	906.48814	-740.48394	47.59629	775.23256	-745.35414	95.68803	811.95716	-803.04273	256.89193	871.95833	-689.84358	302.31165	896.61695	-636.61321	319.57522	877.48584	-659.26999	-523.37110	890.66970	-411.44165	-532.98775	879.97509	-608.39373	-517.90112	886.80822	-423.72892	-509.14543	874.83105	-603.40706	
456	4.55000000	-212.11667	593.85710	-315.78155	-179.89220	448.07716	-312.92099	-297.83491	100.94398	-303.11386	-357.48668	71.33342	-364.21133	-163.44029	41.36059	-270.17588	-125.26374	70.22297	-321.08764	-260.89026	599.02067	-855.37147	-219.84710	404.57731	-891.01326	-340.86481	117.33660	-928.75285	-395.18229	74.50590	-871.31525	-197.81054	35.84271	-971.56699	-156.57123	67.07830	-912.80471	-200.34020	337.89469	-312.92071	-245.86510	458.96105	-276.93059	-267.98839	349.22750	-268.08328	-297.34250	433.24782	-923.16905	-324.61042	315.83471	-924.19374	-389.03077	826.71880	-307.18312	-298.69517	759.33930	-300.12176	-321.69715	694.69438	-294.88061	-458.43396	740.13478	-328.64896	-364.48097	666.93009	-319.33561	-394.73236	852.44088	-764.76968	-305.39326	762.19072	-809.87287	-480.41171	785.94608	-781.74454	-388.43982	695.92453	-835.72767	-401.18399	918.85895	-381.77758	-520.97857	1055.43559	-476.69861	-413.63141	892.47744	-653.43197	-516.53508	1049.30255	-567.94444	-50.89682	1207.76236	-506.58135	12.37122	1086.89005	-358.35247	-9.58748	1133.56017	-669.99265	-16.79545	1040.94754	-495.77141	-23.68683	1042.42649	-535.57415	97.47923	883.74452	-300.89769	83.52411	721.38832	-318.38643	110.72741	761.46593	-243.11218	262.89371	858.03257	-354.24451	320.61218	902.57427	-406.07051	342.24362	874.29378	-395.64139	88.66707	913.68503	-741.37623	45.33628	782.72887	-746.34396	93.61916	819.25632	-804.04392	255.05697	878.41963	-690.60856	300.56064	902.82393	-637.48210	317.73045	883.73695	-660.19730	-523.00941	895.77659	-411.99218	-532.81308	885.27836	-608.94544	-517.61753	891.89360	-424.24886	-508.86620	879.81481	-603.95395	
